  <svg xmlns="http://www.w3.org/2000/svg" width="58.117" height="63.219" viewBox="0 0 98.117 63.219">
                        <g id="Group_34858" data-name="Group 34858" transform="translate(-219.883 -31.029)">
                            <path id="Path_36853" data-name="Path 36853"
                                d="M241.121,228.19H229.05c0-3.706,2.551-6.15,6.377-6.15,3.4,0,5.7,2.442,5.7,6.15Z"
                                transform="translate(35.893 -167.51)" fill="#f97412" />
                            <path id="Path_36854" data-name="Path 36854"
                                d="M282.44,119.953,267.128,120v41.783a1.21,1.21,0,0,1-1.191,1.179H250.89a1.291,1.291,0,0,1-1.275-1.179v-1.305a24.975,24.975,0,0,0,4.339-2.232c.6-.337.766-.674.6-1.263l-3.656-10.445a.912.912,0,0,0-1.275-.674h0a32.438,32.438,0,0,1-13,2.779c-7.141,0-7.141-5.308-7.141-5.308h27.291q1.149,0,1.275-1.011a19.073,19.073,0,0,0,.341-3.79c0-15.332-8.332-24.345-22.444-24.345-.547,0-1.089.012-1.62.042V106.1a1.289,1.289,0,0,1,1.191-1.263h45.739a1.107,1.107,0,0,1,1.191,1.179"
                                transform="translate(35.557 -73.811)" fill="#0089fe" />
                            <path id="Path_36855" data-name="Path 36855"
                                d="M4.34,106.209a1.23,1.23,0,0,1,1.275-1.179H43.532a1.211,1.211,0,0,1,1.191,1.179v10.245c-8.548,3.609-13.772,11.688-13.772,22.358s5.22,18.524,13.772,22.176v.906a1.285,1.285,0,0,1-1.191,1.263H28.485a1.291,1.291,0,0,1-1.275-1.179V141.844H11.651a1.49,1.49,0,0,1-1.446-1.095L9.014,128.954a1.015,1.015,0,0,1,1.1-1.095H27.21v-7.666l-22.775.038"
                                transform="translate(215.543 -73.963)" fill="#0089fe" />
                            <path id="Path_36856" data-name="Path 36856"
                                d="M183.238,404.692a.057.057,0,0,1,.052.062v.662c0,.04-.02.066-.052.066h-.884v.4h.7a.049.049,0,0,1,.046.056l-.048.614a.066.066,0,0,1-.058.056h-.638v1.047a.061.061,0,0,1-.052.062h-.616c-.028,0-.048-.034-.048-.066v-2.9c0-.03.02-.062.048-.062h1.552Z"
                                transform="translate(73.796 -313.534)" fill="#f97412" />
                            <path id="Path_36857" data-name="Path 36857"
                                d="M191.7,407.76c.028,0,.048.026.048.062v.569c0,.034-.02.062-.048.062h-.09a.318.318,0,0,0-.3.184v1.468a.063.063,0,0,1-.052.066h-.612a.061.061,0,0,1-.052-.066v-2.278a.061.061,0,0,1,.052-.062h.393c.028,0,.046.03.056.066l.052.193a.55.55,0,0,1,.459-.263h.09Z"
                                transform="translate(66.633 -315.989)" fill="#f97412" />
                            <path id="Path_36858" data-name="Path 36858"
                                d="M198.4,408.717c0,.762-.411,1.271-1.023,1.271s-1.023-.507-1.023-1.267.411-1.271,1.023-1.271S198.4,407.957,198.4,408.717Zm-1.368,0c0,.285.138.477.345.477s.345-.192.345-.481-.138-.477-.345-.477S197.028,408.433,197.028,408.721Z"
                                transform="translate(62.036 -315.741)" fill="#f97412" />
                            <path id="Path_36859" data-name="Path 36859"
                                d="M208.059,407.695a.72.72,0,0,1,.559-.245c.473,0,.73.277.73.961v1.446a.063.063,0,0,1-.052.066h-.612a.056.056,0,0,1-.048-.066v-1.309c0-.174-.062-.277-.17-.277-.2,0-.231.245-.231.245v1.341a.063.063,0,0,1-.052.066h-.612a.061.061,0,0,1-.052-.066v-2.284c0-.04.018-.062.048-.062h.389a.058.058,0,0,1,.056.044Z"
                                transform="translate(53.106 -315.741)" fill="#f97412" />
                            <path id="Path_36860" data-name="Path 36860"
                                d="M218.573,405.312c.032,0,.052.026.052.062l-.038.425c0,.036-.024.066-.052.066h-.223v1.793a.063.063,0,0,1-.052.066h-.612a.061.061,0,0,1-.052-.066v-1.793h-.2a.057.057,0,0,1-.048-.062v-.425c0-.04.024-.066.048-.066h.2v-.477a.066.066,0,0,1,.052-.062l.612-.074c.028,0,.052.03.052.062v.551Z"
                                transform="translate(45.247 -313.541)" fill="#f97412" />
                            <path id="Path_36861" data-name="Path 36861"
                                d="M225.661,409.668a.057.057,0,0,1-.024.066,1.16,1.16,0,0,1-.72.245c-.616,0-1.027-.507-1.027-1.267s.4-1.271,1.009-1.271.918.469.918,1.267a1.28,1.28,0,0,1-.014.2c0,.034-.02.052-.052.052h-1.117a.276.276,0,0,0,.293.277,1.1,1.1,0,0,0,.533-.144c.024-.014.046,0,.052.034l.15.543Zm-.535-1.169c0-.193-.094-.321-.233-.321-.156,0-.261.126-.261.321Z"
                                transform="translate(40.018 -315.733)" fill="#f97412" />
                            <path id="Path_36862" data-name="Path 36862"
                                d="M235.009,407.695a.72.72,0,0,1,.559-.245c.473,0,.73.277.73.961v1.446a.063.063,0,0,1-.052.066h-.612a.056.056,0,0,1-.048-.066v-1.309c0-.174-.062-.277-.17-.277-.2,0-.231.245-.231.245v1.341a.063.063,0,0,1-.052.066h-.612a.061.061,0,0,1-.052-.066v-2.284c0-.04.018-.062.048-.062h.389a.058.058,0,0,1,.056.044Z"
                                transform="translate(31.56 -315.741)" fill="#f97412" />
                            <path id="Path_36863" data-name="Path 36863"
                                d="M246.477,403.922a.06.06,0,0,1,.052.062v3.05a.063.063,0,0,1-.052.066h-.393c-.024,0-.042-.026-.056-.066l-.052-.158a.749.749,0,0,1-.588.289c-.549,0-.918-.507-.918-1.271s.369-1.267.918-1.267a.605.605,0,0,1,.425.166v-.81a.061.061,0,0,1,.052-.062h.612Zm-.664,1.7a.3.3,0,0,0-.275-.241c-.19,0-.321.2-.321.507s.128.525.321.525a.3.3,0,0,0,.275-.241Z"
                                transform="translate(23.565 -312.919)" fill="#f97412" />
                            <path id="Path_36864" data-name="Path 36864"
                                d="M259.541,404.7a.052.052,0,0,1,.048.062l-.052.666a.069.069,0,0,1-.056.062h-.519v2.174c0,.03-.02.062-.048.062H258.3a.06.06,0,0,1-.052-.062V405.49h-.578a.057.057,0,0,1-.048-.062v-.662c0-.036.024-.066.048-.066Z"
                                transform="translate(13.052 -313.542)" fill="#f97412" />
                            <path id="Path_36865" data-name="Path 36865"
                                d="M268.734,403.93a.061.061,0,0,1,.052.066v.884a.516.516,0,0,1,.449-.245c.417,0,.664.3.664.806v1.6a.063.063,0,0,1-.052.066h-.612a.056.056,0,0,1-.048-.066v-1.376c0-.174-.062-.277-.17-.277-.2,0-.231.245-.231.245v1.408a.063.063,0,0,1-.052.066h-.612a.061.061,0,0,1-.052-.066V404a.063.063,0,0,1,.052-.066Z"
                                transform="translate(4.697 -312.927)" fill="#f97412" />
                            <path id="Path_36866" data-name="Path 36866"
                                d="M279,403.4a.386.386,0,1,1-.766,0c0-.273.152-.451.383-.451S279,403.13,279,403.4Zm-.072.513a.06.06,0,0,1,.052.062v2.284a.063.063,0,0,1-.052.066h-.612a.061.061,0,0,1-.052-.066v-2.284a.061.061,0,0,1,.052-.062Z"
                                transform="translate(-3.425 -312.143)" fill="#f97412" />
                            <path id="Path_36867" data-name="Path 36867"
                                d="M283.739,407.695a.72.72,0,0,1,.559-.245c.473,0,.73.277.73.961v1.446a.063.063,0,0,1-.052.066h-.612a.056.056,0,0,1-.048-.066v-1.309c0-.174-.062-.277-.17-.277-.2,0-.231.245-.231.245v1.341a.063.063,0,0,1-.052.066h-.612a.061.061,0,0,1-.052-.066v-2.284c0-.04.018-.062.048-.062h.389a.058.058,0,0,1,.056.044Z"
                                transform="translate(-7.399 -315.741)" fill="#f97412" />
                            <path id="Path_36868" data-name="Path 36868"
                                d="M294.136,403.93a.06.06,0,0,1,.052.062v1.456l.323-.7a.094.094,0,0,1,.08-.052h.7c.028,0,.038.022.024.052l-.515,1.073.63,1.231c.018.03,0,.052-.024.052h-.742a.09.09,0,0,1-.072-.052l-.4-.868v.854a.063.063,0,0,1-.052.066h-.612a.061.061,0,0,1-.052-.066v-3.05a.061.061,0,0,1,.052-.062h.612Z"
                                transform="translate(-15.609 -312.927)" fill="#f97412" />
                            <path id="Path_36869" data-name="Path 36869"
                                d="M304.511,409.668a.057.057,0,0,1-.024.066,1.16,1.16,0,0,1-.72.245c-.616,0-1.027-.507-1.027-1.267s.4-1.271,1.009-1.271.918.469.918,1.267a1.276,1.276,0,0,1-.014.2c0,.034-.02.052-.052.052h-1.117a.276.276,0,0,0,.293.277,1.1,1.1,0,0,0,.533-.144c.024-.014.046,0,.052.034l.15.543Zm-.535-1.169c0-.193-.094-.321-.233-.321-.156,0-.261.126-.261.321Z"
                                transform="translate(-23.021 -315.733)" fill="#f97412" />
                            <path id="Path_36870" data-name="Path 36870"
                                d="M314.423,407.76c.028,0,.048.026.048.062v.569c0,.034-.02.062-.048.062h-.09a.318.318,0,0,0-.3.184v1.468a.063.063,0,0,1-.052.066h-.612a.061.061,0,0,1-.052-.066v-2.278a.061.061,0,0,1,.052-.062h.393c.028,0,.046.03.056.066l.052.193a.55.55,0,0,1,.459-.263h.09Z"
                                transform="translate(-31.479 -315.989)" fill="#f97412" />
                            <path id="Path_36871" data-name="Path 36871"
                                d="M319.963,409.158a.028.028,0,0,1,.046-.018.776.776,0,0,0,.4.18.107.107,0,0,0,.122-.11c0-.223-.762-.154-.762-.977a.745.745,0,0,1,.79-.784,1.159,1.159,0,0,1,.682.251.059.059,0,0,1,.02.062l-.178.517a.028.028,0,0,1-.046.018.7.7,0,0,0-.4-.18.1.1,0,0,0-.122.1c0,.233.762.148.762.983a.734.734,0,0,1-.77.784,1.254,1.254,0,0,1-.7-.251.073.073,0,0,1-.02-.07l.178-.507Z"
                                transform="translate(-36.636 -315.741)" fill="#f97412" />
                        </g>
                    </svg>